<svg width="87" height="13" viewBox="0 0 87 13" fill="none" xmlns="http://www.w3.org/2000/svg">
<path d="M6.2015 12.9735C4.93727 12.9735 3.84323 12.7079 2.91938 12.1766C2.00768 11.6337 1.30264 10.884 0.804235 9.92782C0.305838 8.95986 0.0566406 7.8443 0.0566406 6.58113C0.0566406 5.30621 0.305838 4.19065 0.804235 3.23445C1.30264 2.26645 2.00768 1.51093 2.91938 0.967914C3.84323 0.424893 4.93727 0.153377 6.2015 0.153377C7.69669 0.153377 8.91837 0.507524 9.86654 1.21582C10.8147 1.92411 11.4164 2.91572 11.6717 4.19065H9.52009C9.34991 3.47055 8.98522 2.89801 8.42605 2.47304C7.86688 2.04806 7.11929 1.83557 6.18327 1.83557C4.90689 1.83557 3.89794 2.26055 3.15642 3.1105C2.41491 3.94865 2.04415 5.10552 2.04415 6.58113C2.04415 8.0449 2.41491 9.19587 3.15642 10.0341C3.89794 10.8722 4.90689 11.2913 6.18327 11.2913C7.11929 11.2913 7.86688 11.0906 8.42605 10.6892C8.98522 10.2879 9.34991 9.73898 9.52009 9.04245H11.6717C11.4164 10.2702 10.8147 11.2322 9.86654 11.9287C8.91837 12.6253 7.69669 12.9735 6.2015 12.9735ZM13.1763 12.761V0.0117188H15.1091V12.761H13.1763ZM21.24 12.9735C20.3527 12.9735 19.5625 12.7846 18.8696 12.4068C18.1888 12.0173 17.654 11.4801 17.265 10.7955C16.876 10.1108 16.6815 9.314 16.6815 8.40499C16.6815 7.48421 16.87 6.67558 17.2468 5.97908C17.6358 5.28259 18.1706 4.73957 18.8513 4.35001C19.5442 3.96045 20.3465 3.76567 21.2582 3.76567C22.1456 3.76567 22.9175 3.96045 23.574 4.35001C24.2304 4.72777 24.7409 5.23538 25.1056 5.87284C25.4703 6.5103 25.6526 7.21269 25.6526 7.98001C25.6526 8.09802 25.6465 8.22791 25.6344 8.36957C25.6344 8.49947 25.6283 8.64694 25.6162 8.81225H18.5778C18.6387 9.66221 18.9243 10.3114 19.4348 10.7601C19.9575 11.1968 20.5592 11.4152 21.24 11.4152C21.787 11.4152 22.2429 11.2972 22.6076 11.0611C22.9844 10.8132 23.264 10.4827 23.4463 10.0695H25.3791C25.136 10.8958 24.6498 11.5864 23.9204 12.1412C23.2032 12.6961 22.3097 12.9735 21.24 12.9735ZM21.24 5.30621C20.5957 5.30621 20.0244 5.49508 19.526 5.87284C19.0276 6.23879 18.7237 6.79362 18.6143 7.53733H23.7198C23.6834 6.85265 23.4342 6.30962 22.9722 5.90826C22.5103 5.50689 21.9329 5.30621 21.24 5.30621ZM30.1744 12.9735C29.4086 12.9735 28.7764 12.8495 28.2781 12.6016C27.7796 12.3537 27.4088 12.029 27.1658 11.6277C26.9226 11.2145 26.8011 10.766 26.8011 10.282C26.8011 9.43201 27.1414 8.75913 27.8222 8.26333C28.5029 7.76752 29.4754 7.51962 30.7397 7.51962H33.1101V7.36026C33.1101 6.67558 32.9155 6.16206 32.5266 5.81972C32.1497 5.47737 31.6574 5.30621 31.0496 5.30621C30.5147 5.30621 30.0468 5.43606 29.6456 5.69577C29.2566 5.94367 29.0195 6.31552 28.9345 6.81133H27.0017C27.0624 6.17386 27.2812 5.63085 27.6581 5.18226C28.047 4.72187 28.5334 4.37363 29.1168 4.13752C29.7124 3.88962 30.3627 3.76567 31.0679 3.76567C32.332 3.76567 33.3107 4.09031 34.0036 4.73957C34.6964 5.37704 35.0429 6.2506 35.0429 7.36026V12.761H33.3654L33.2013 11.2559C32.946 11.7399 32.5752 12.1472 32.089 12.4777C31.6027 12.8082 30.9645 12.9735 30.1744 12.9735ZM30.5573 11.4506C31.08 11.4506 31.5176 11.3326 31.8702 11.0965C32.2349 10.8486 32.5144 10.5239 32.7089 10.1226C32.9155 9.72127 33.0431 9.27859 33.0919 8.79455H30.9402C30.1744 8.79455 29.6274 8.92444 29.2992 9.18411C28.9831 9.44377 28.8251 9.76845 28.8251 10.158C28.8251 10.5593 28.977 10.8781 29.2809 11.1142C29.5969 11.3385 30.0224 11.4506 30.5573 11.4506ZM36.7495 12.761V3.97816H38.4817L38.6458 5.64265C38.9619 5.06421 39.3995 4.60971 39.9587 4.27918C40.53 3.93684 41.2168 3.76567 42.0191 3.76567V5.73118H41.4903C40.9554 5.73118 40.4753 5.81972 40.0498 5.99679C39.6366 6.16206 39.3022 6.45127 39.047 6.86445C38.8038 7.26581 38.6823 7.82655 38.6823 8.54665V12.761H36.7495Z" fill="black"/>
<path d="M47.413 12.9735C46.477 12.9735 45.6565 12.8141 44.9514 12.4954C44.2463 12.1766 43.6933 11.7222 43.2922 11.1319C42.9031 10.5416 42.7025 9.83928 42.6904 9.02474H44.7326C44.7448 9.68586 44.9818 10.2465 45.4438 10.7069C45.9056 11.1673 46.556 11.3975 47.3948 11.3975C48.1363 11.3975 48.7136 11.2264 49.127 10.884C49.5524 10.5299 49.7652 10.0812 49.7652 9.53825C49.7652 9.10152 49.6618 8.74737 49.4553 8.47582C49.2607 8.20426 48.9872 7.98001 48.6347 7.80294C48.2943 7.62586 47.8992 7.4665 47.4495 7.32484C46.9996 7.18318 46.5256 7.02972 46.0273 6.86445C45.0426 6.54572 44.301 6.13254 43.8027 5.62494C43.3164 5.11733 43.0733 4.45035 43.0733 3.62401C43.0611 2.92752 43.2252 2.31958 43.5657 1.80016C43.9181 1.28074 44.4044 0.879377 45.0244 0.59606C45.6565 0.300942 46.3919 0.153377 47.2307 0.153377C48.0572 0.153377 48.7806 0.300942 49.4005 0.59606C50.0326 0.891178 50.5249 1.30435 50.8775 1.83557C51.2299 2.35499 51.4123 2.96293 51.4245 3.65943H49.3823C49.3823 3.34069 49.2971 3.03967 49.127 2.75635C48.9568 2.46124 48.7077 2.21923 48.3794 2.03035C48.0512 1.84148 47.6501 1.74704 47.176 1.74704C46.5682 1.73523 46.0637 1.88279 45.6626 2.18972C45.2735 2.49665 45.0791 2.92163 45.0791 3.46465C45.0791 3.94865 45.225 4.3205 45.5167 4.58021C45.8084 4.83991 46.2096 5.0583 46.7201 5.23538C47.2307 5.40065 47.8142 5.59543 48.4706 5.81972C49.1027 6.02041 49.6679 6.2624 50.1664 6.54572C50.6647 6.82904 51.0598 7.20089 51.3516 7.66128C51.6554 8.12167 51.8074 8.70601 51.8074 9.4143C51.8074 10.04 51.6433 10.6243 51.3151 11.1673C50.9869 11.6985 50.4946 12.1353 49.8382 12.4777C49.1817 12.8082 48.3733 12.9735 47.413 12.9735ZM57.0932 12.761C56.2059 12.761 55.5009 12.5544 54.9781 12.1412C54.4554 11.7163 54.194 10.9666 54.194 9.8924V5.55411H52.6441V3.97816H54.194L54.4311 1.74704H56.1268V3.97816H58.6796V5.55411H56.1268V9.8924C56.1268 10.3764 56.2302 10.7129 56.4368 10.9017C56.6556 11.0788 57.0264 11.1673 57.5491 11.1673H58.5884V12.761H57.0932ZM63.1889 12.9735C62.423 12.9735 61.7908 12.8495 61.2925 12.6016C60.7941 12.3537 60.4233 12.029 60.1802 11.6277C59.9371 11.2145 59.8156 10.766 59.8156 10.282C59.8156 9.43201 60.1559 8.75913 60.8367 8.26333C61.5173 7.76752 62.4898 7.51962 63.7541 7.51962H66.1245V7.36026C66.1245 6.67558 65.9299 6.16206 65.541 5.81972C65.1641 5.47737 64.6718 5.30621 64.0641 5.30621C63.5292 5.30621 63.0612 5.43606 62.6601 5.69577C62.271 5.94367 62.034 6.31552 61.9489 6.81133H60.0161C60.0768 6.17386 60.2956 5.63085 60.6726 5.18226C61.0615 4.72187 61.5478 4.37363 62.1313 4.13752C62.7269 3.88962 63.3772 3.76567 64.0823 3.76567C65.3465 3.76567 66.3251 4.09031 67.018 4.73957C67.7109 5.37704 68.0573 6.2506 68.0573 7.36026V12.761H66.3798L66.2157 11.2559C65.9604 11.7399 65.5896 12.1472 65.1034 12.4777C64.6171 12.8082 63.9789 12.9735 63.1889 12.9735ZM63.5718 11.4506C64.0944 11.4506 64.532 11.3326 64.8846 11.0965C65.2493 10.8486 65.5288 10.5239 65.7234 10.1226C65.9299 9.72127 66.0576 9.27859 66.1063 8.79455H63.9547C63.1889 8.79455 62.6418 8.92444 62.3136 9.18411C61.9975 9.44377 61.8395 9.76845 61.8395 10.158C61.8395 10.5593 61.9914 10.8781 62.2954 11.1142C62.6114 11.3385 63.0369 11.4506 63.5718 11.4506ZM69.7639 12.761V0.0117188H71.6967V7.60816L75.1612 3.97816H77.4769L73.6295 7.9623L78.0422 12.761H75.5988L71.6967 8.26333V12.761H69.7639ZM82.5285 12.9735C81.6412 12.9735 80.851 12.7846 80.1581 12.4068C79.4774 12.0173 78.9425 11.4801 78.5535 10.7955C78.1646 10.1108 77.97 9.314 77.97 8.40499C77.97 7.48421 78.1585 6.67558 78.5353 5.97908C78.9243 5.28259 79.4592 4.73957 80.1398 4.35001C80.8327 3.96045 81.635 3.76567 82.5467 3.76567C83.4342 3.76567 84.206 3.96045 84.8625 4.35001C85.5189 4.72777 86.0294 5.23538 86.3941 5.87284C86.7588 6.5103 86.9411 7.21269 86.9411 7.98001C86.9411 8.09802 86.9351 8.22791 86.9229 8.36957C86.9229 8.49947 86.9169 8.64694 86.9047 8.81225H79.8663C79.9272 9.66221 80.2128 10.3114 80.7233 10.7601C81.2461 11.1968 81.8479 11.4152 82.5285 11.4152C83.0755 11.4152 83.5314 11.2972 83.896 11.0611C84.273 10.8132 84.5525 10.4827 84.7348 10.0695H86.6676C86.4246 10.8958 85.9383 11.5864 85.2089 12.1412C84.4918 12.6961 83.5983 12.9735 82.5285 12.9735ZM82.5285 5.30621C81.8843 5.30621 81.3129 5.49508 80.8145 5.87284C80.3162 6.23879 80.0122 6.79362 79.9028 7.53733H85.0083C84.9719 6.85265 84.7227 6.30962 84.2607 5.90826C83.7989 5.50689 83.2214 5.30621 82.5285 5.30621Z" fill="#33846E"/>
</svg>
