<svg width="306" height="38" viewBox="0 0 306 38" fill="none" xmlns="http://www.w3.org/2000/svg">
<rect width="306" height="38" rx="6" fill="#F9FAFB"/>
<path d="M65.75 15.25H65.7575H65.75ZM65.75 12.25H69.5C69.884 12.25 70.268 12.3962 70.5605 12.6895L75.8105 17.9395C76.0917 18.2208 76.2497 18.6023 76.2497 19C76.2497 19.3977 76.0917 19.7792 75.8105 20.0605L70.5605 25.3105C70.2792 25.5917 69.8977 25.7497 69.5 25.7497C69.1023 25.7497 68.7208 25.5917 68.4395 25.3105L63.1895 20.0605C63.05 19.9214 62.9394 19.7561 62.8639 19.5741C62.7885 19.3921 62.7498 19.197 62.75 19V15.25C62.75 14.4544 63.0661 13.6913 63.6287 13.1287C64.1913 12.5661 64.9544 12.25 65.75 12.25V12.25Z" stroke="#4B5563" stroke-linecap="round" stroke-linejoin="round"/>
<path d="M84.3608 23H85.9418V19.2926H89.5682V17.9673H85.9418V15.598H89.9517V14.2727H84.3608V23ZM91.692 23H93.273V19.804H94.8838L96.5969 23H98.3611L96.4733 19.5398C97.5003 19.1264 98.0415 18.2486 98.0415 17.0639C98.0415 15.3977 96.9676 14.2727 94.9648 14.2727H91.692V23ZM93.273 18.4915V15.5938H94.7219C95.9023 15.5938 96.4307 16.1349 96.4307 17.0639C96.4307 17.9929 95.9023 18.4915 94.7304 18.4915H93.273ZM99.7967 23H105.507V21.6747H101.378V19.2926H105.179V17.9673H101.378V15.598H105.473V14.2727H99.7967V23ZM107.386 23H113.096V21.6747H108.967V19.2926H112.768V17.9673H108.967V15.598H113.062V14.2727H107.386V23ZM121.209 23C123.868 23 125.445 21.3551 125.445 18.6278C125.445 15.9091 123.868 14.2727 121.268 14.2727H118.251V23H121.209ZM119.832 21.6321V15.6406H121.179C122.952 15.6406 123.876 16.6293 123.876 18.6278C123.876 20.6349 122.952 21.6321 121.132 21.6321H119.832ZM127.247 23H132.957V21.6747H128.828V19.2926H132.629V17.9673H128.828V15.598H132.923V14.2727H127.247V23ZM134.836 23H140.261V21.6747H136.417V14.2727H134.836V23ZM143.514 14.2727H141.933V23H143.514V14.2727ZM146.693 14.2727H144.959L148.031 23H149.983L153.06 14.2727H151.321L149.054 21.142H148.965L146.693 14.2727ZM154.509 23H160.219V21.6747H156.09V19.2926H159.891V17.9673H156.09V15.598H160.185V14.2727H154.509V23ZM162.098 23H163.679V19.804H165.29L167.003 23H168.767L166.88 19.5398C167.907 19.1264 168.448 18.2486 168.448 17.0639C168.448 15.3977 167.374 14.2727 165.371 14.2727H162.098V23ZM163.679 18.4915V15.5938H165.128C166.309 15.5938 166.837 16.1349 166.837 17.0639C166.837 17.9929 166.309 18.4915 165.137 18.4915H163.679ZM169.267 14.2727L172.441 19.7443V23H174.018V19.7443L177.193 14.2727H175.407L173.272 18.1335H173.187L171.052 14.2727H169.267ZM182.204 18.6364C182.204 20.7628 182.771 22.5312 183.892 24.0483H185.345C184.48 22.9233 183.811 20.6562 183.811 18.6364C183.811 16.6122 184.48 14.3452 185.345 13.2202H183.892C182.771 14.7372 182.204 16.5099 182.204 18.6364ZM192.413 14.2727V19.8423C192.413 20.9375 191.65 21.7216 190.453 21.7216C189.251 21.7216 188.493 20.9375 188.493 19.8423V14.2727H186.912V19.9744C186.912 21.8494 188.318 23.1321 190.453 23.1321C192.579 23.1321 193.994 21.8494 193.994 19.9744V14.2727H192.413ZM196.012 23H197.593V20.4006L198.561 19.2585L201.164 23H203.065L199.66 18.1889L203.035 14.2727H201.105L197.7 18.2827H197.593V14.2727H196.012V23ZM215.508 18.6364C215.508 15.8153 213.787 14.1534 211.498 14.1534C209.206 14.1534 207.488 15.8153 207.488 18.6364C207.488 21.4531 209.206 23.1193 211.498 23.1193C213.787 23.1193 215.508 21.4574 215.508 18.6364ZM213.919 18.6364C213.919 20.6222 212.922 21.7003 211.498 21.7003C210.079 21.7003 209.078 20.6222 209.078 18.6364C209.078 16.6506 210.079 15.5724 211.498 15.5724C212.922 15.5724 213.919 16.6506 213.919 18.6364ZM224.475 14.2727H222.902V20.2216H222.826L218.718 14.2727H217.303V23H218.884V17.0554H218.956L223.069 23H224.475V14.2727ZM226.498 23H231.922V21.6747H228.078V14.2727H226.498V23ZM232.119 14.2727L235.294 19.7443V23H236.87V19.7443L240.045 14.2727H238.26L236.125 18.1335H236.039L233.904 14.2727H232.119ZM244.149 18.6364C244.149 16.5099 243.583 14.7415 242.462 13.2244H241.009C241.874 14.3494 242.543 16.6165 242.543 18.6364C242.543 20.6605 241.874 22.9276 241.009 24.0526H242.462C243.583 22.5355 244.149 20.7628 244.149 18.6364Z" fill="#4B5563"/>
</svg>
