<svg width="110" height="18" viewBox="0 0 110 18" fill="none" xmlns="http://www.w3.org/2000/svg">
<rect width="18" height="18" rx="1" fill="#13B172"/>
<path d="M9.00023 2.0769L10.6345 7.09982H15.9233L11.6446 10.2042L9.3565 11.7692L11.8489 10.832L12.0532 11.4599L12.4618 12.7156L13.2789 15.2271L9.00023 12.1227L4.72153 15.2271L6.35584 10.2042L2.07715 7.09982H7.36591L9.00023 2.0769Z" fill="white"/>
<rect x="23" width="18" height="18" rx="1" fill="#13B172"/>
<path d="M32.0002 2.0769L33.6345 7.09982H38.9233L34.6446 10.2042L32.3565 11.7692L34.8489 10.832L35.0532 11.4599L35.4618 12.7156L36.2789 15.2271L32.0002 12.1227L27.7215 15.2271L29.3558 10.2042L25.0771 7.09982H30.3659L32.0002 2.0769Z" fill="white"/>
<rect x="46" width="18" height="18" rx="1" fill="#13B172"/>
<path d="M55.0002 2.0769L56.6345 7.09982H61.9233L57.6446 10.2042L55.3565 11.7692L57.8489 10.832L58.0532 11.4599L58.4618 12.7156L59.2789 15.2271L55.0002 12.1227L50.7215 15.2271L52.3558 10.2042L48.0771 7.09982H53.3659L55.0002 2.0769Z" fill="white"/>
<rect x="69" width="18" height="18" rx="1" fill="#13B172"/>
<path d="M78.0002 2.0769L79.6345 7.09982H84.9233L80.6446 10.2042L78.3565 11.7692L80.8489 10.832L81.0532 11.4599L81.4618 12.7156L82.2789 15.2271L78.0002 12.1227L73.7215 15.2271L75.3558 10.2042L71.0771 7.09982H76.3659L78.0002 2.0769Z" fill="white"/>
<rect x="92" width="18" height="18" rx="1" fill="#13B172"/>
<path d="M101 2.0769L102.635 7.09982H107.923L103.645 10.2042L101.357 11.7692L103.849 10.832L104.053 11.4599L104.462 12.7156L105.279 15.2271L101 12.1227L96.7215 15.2271L98.3558 10.2042L94.0771 7.09982H99.3659L101 2.0769Z" fill="white"/>
</svg>
