<svg width="16" height="17" viewBox="0 0 16 17" fill="none" xmlns="http://www.w3.org/2000/svg">
<path d="M5.43884 8.43884L7.10551 10.1055L10.4388 6.77217M4.46801 2.35301C5.06576 2.3053 5.63324 2.07026 6.08967 1.68134C6.60543 1.24156 7.26104 1 7.93884 1C8.61664 1 9.27225 1.24156 9.78801 1.68134C10.2444 2.07026 10.8119 2.3053 11.4097 2.35301C12.0853 2.40676 12.7197 2.69953 13.1989 3.17878C13.6782 3.65803 13.9709 4.29238 14.0247 4.96801C14.0724 5.56576 14.3074 6.13324 14.6963 6.58967C15.1361 7.10543 15.3777 7.76104 15.3777 8.43884C15.3777 9.11664 15.1361 9.77225 14.6963 10.288C14.3074 10.7444 14.0724 11.3119 14.0247 11.9097C13.9709 12.5853 13.6782 13.2197 13.1989 13.6989C12.7197 14.1782 12.0853 14.4709 11.4097 14.5247C10.8119 14.5724 10.2444 14.8074 9.78801 15.1963C9.27225 15.6361 8.61664 15.8777 7.93884 15.8777C7.26104 15.8777 6.60543 15.6361 6.08967 15.1963C5.63324 14.8074 5.06576 14.5724 4.46801 14.5247C3.79238 14.4709 3.15803 14.1782 2.67878 13.6989C2.19953 13.2197 1.90676 12.5853 1.85301 11.9097C1.8053 11.3119 1.57026 10.7444 1.18134 10.288C0.741565 9.77225 0.5 9.11664 0.5 8.43884C0.5 7.76104 0.741565 7.10543 1.18134 6.58967C1.57026 6.13324 1.8053 5.56576 1.85301 4.96801C1.90676 4.29238 2.19953 3.65803 2.67878 3.17878C3.15803 2.69953 3.79238 2.40676 4.46801 2.35301Z" stroke="#374151" stroke-linecap="round" stroke-linejoin="round"/>
</svg>
