<?xml version="1.0" encoding="utf-8"?>
<!-- Generator: Adobe Illustrator 23.0.0, SVG Export Plug-In . SVG Version: 6.00 Build 0)  -->
<svg version="1.1" id="圖層_1" xmlns="http://www.w3.org/2000/svg" xmlns:xlink="http://www.w3.org/1999/xlink" x="0px" y="0px"
	 viewBox="0 0 200 200" style="enable-background:new 0 0 200 200;" xml:space="preserve">
<style type="text/css">
	.st0{fill:#000;}
</style>
<g>
	<g>
		<g>
			<path class="st0" d="M100,184c-46.3,0-84-37.7-84-84c0-46.3,37.7-84,84-84c46.3,0,84,37.7,84,84C184,146.3,146.3,184,100,184z
				 M100,24c-41.9,0-76,34.1-76,76c0,41.9,34.1,76,76,76c41.9,0,76-34.1,76-76C176,58.1,141.9,24,100,24z"/>
		</g>
	</g>
	<path class="st0" d="M89,131.4c-1.9,0-3.6-0.7-4.9-1.9l-27.2-27.2c-1.2-1.2-1.9-3-1.9-4.9s0.7-3.6,1.9-4.9c1.3-1.3,3-2,4.9-2
		c0,0,0,0,0,0c1.9,0,3.6,0.7,4.9,2L89,114.9l44.3-44.3c1.3-1.3,3-2,4.9-2c1.8,0,3.5,0.7,4.8,1.9c1.2,1.4,1.8,3.1,1.8,5.1
		c0,1.9-0.7,3.6-1.9,4.9l-49,49C92.6,130.7,90.9,131.4,89,131.4z"/>
</g>
</svg>
