<svg width="64" height="37" viewBox="0 0 64 37" fill="none" xmlns="http://www.w3.org/2000/svg">
<path d="M6.55217 20.5245V10.3111H4.22363V22.411H12.1836V20.5245H6.55217Z" fill="#505254"/>
<path d="M21.9361 17.2503V15.4885C21.9361 14.94 21.8838 14.422 21.7792 13.9344C21.6801 13.4469 21.5342 12.9981 21.3416 12.5881C21.1654 12.228 20.9535 11.8984 20.7057 11.5992C20.4635 11.3 20.18 11.0452 19.8553 10.8347C19.5305 10.613 19.1644 10.4441 18.757 10.3277C18.3552 10.2058 17.9231 10.1449 17.4607 10.1449C17.0038 10.1449 16.5799 10.2031 16.189 10.3194C15.7982 10.4358 15.4459 10.602 15.1321 10.818C14.8128 11.0396 14.5293 11.3056 14.2816 11.6158C14.0394 11.9261 13.833 12.2724 13.6623 12.6546C13.4862 13.0591 13.3513 13.4995 13.2577 13.976C13.1696 14.4524 13.1256 14.9566 13.1256 15.4885V17.2503C13.1256 17.7489 13.1641 18.2226 13.2412 18.6713C13.3238 19.1201 13.4421 19.5356 13.5963 19.9179C13.7669 20.3334 13.9788 20.7074 14.2321 21.0398C14.4853 21.3667 14.7715 21.6464 15.0908 21.8791C15.4156 22.1007 15.7762 22.2725 16.1725 22.3944C16.5689 22.5163 17.001 22.5772 17.4689 22.5772C17.9093 22.5772 18.3194 22.5218 18.6992 22.411C19.0846 22.3057 19.4369 22.1561 19.7562 21.9622C20.1085 21.7406 20.4222 21.4636 20.6975 21.1312C20.9727 20.7988 21.2039 20.4331 21.3911 20.0342C21.5673 19.6353 21.7021 19.2032 21.7957 18.7378C21.8893 18.2669 21.9361 17.771 21.9361 17.2503ZM19.5828 15.4718V17.2503C19.5828 17.5494 19.5662 17.8375 19.5332 18.1145C19.5057 18.3915 19.4617 18.6464 19.4011 18.8791C19.324 19.1783 19.2194 19.447 19.0873 19.6852C18.9607 19.9179 18.8038 20.1118 18.6167 20.2669C18.468 20.3943 18.2974 20.4913 18.1047 20.5578C17.912 20.6243 17.7001 20.6575 17.4689 20.6575C17.2267 20.6575 17.0093 20.6215 16.8166 20.5495C16.6294 20.4774 16.4615 20.375 16.3129 20.242C16.1533 20.0924 16.0129 19.8985 15.8918 19.6603C15.7762 19.4165 15.6881 19.1478 15.6275 18.8542C15.5725 18.6215 15.534 18.3694 15.5119 18.0979C15.4899 17.8264 15.4789 17.5439 15.4789 17.2503V15.4718C15.4789 15.1616 15.4899 14.8652 15.5119 14.5826C15.5395 14.3001 15.5808 14.0397 15.6358 13.8015C15.7074 13.4912 15.8064 13.2197 15.9331 12.987C16.0652 12.7544 16.2248 12.5604 16.412 12.4053C16.5496 12.3001 16.7037 12.2197 16.8744 12.1643C17.0505 12.1089 17.246 12.0812 17.4607 12.0812C17.6863 12.0812 17.89 12.1117 18.0717 12.1726C18.2589 12.2336 18.4267 12.3194 18.5754 12.4302C18.7625 12.5798 18.9249 12.7737 19.0626 13.012C19.2002 13.2447 19.3103 13.5106 19.3928 13.8098C19.4589 14.048 19.5057 14.3084 19.5332 14.5909C19.5662 14.868 19.5828 15.1616 19.5828 15.4718Z" fill="#505254"/>
<path d="M25.8342 22.411H28.1957L31.8372 10.3111H29.2774L27.2296 18.2059L27.0067 19.0287L26.8003 18.2143L24.7607 10.3111H22.201L25.8342 22.411Z" fill="#505254"/>
<path d="M39.9052 17.109V15.2641H34.9673V12.2142H40.7144V10.3111H32.6388V22.411H40.7391V20.5245H34.9673V17.109H39.9052Z" fill="#505254"/>
<path d="M30.5481 36.2965V24.1967H28.2526V29.1579H24.8506V24.1967H22.5469V36.2965H24.8506V31.0527H28.2526V36.2965H30.5481Z" fill="#505254"/>
<path d="M40.0833 30.9945V29.1496H35.1454V26.0997H40.8925V24.1967H32.8169V36.2965H40.9173V34.4101H35.1454V30.9945H40.0833Z" fill="#505254"/>
<path d="M45.6054 24.1967H42.7236V36.2965H44.854V32.7148L44.7549 27.2798L46.1669 32.3076H47.3146L48.8918 27.0554L48.7927 32.7148V36.2965H50.923V24.1967H48.0413L46.7449 28.7424L45.6054 24.1967Z" fill="#505254"/>
<path d="M55.2974 31.8588H57.0892C57.7443 31.8588 58.3361 31.7646 58.8645 31.5763C59.393 31.3879 59.8444 31.1247 60.2187 30.7868C60.5875 30.4544 60.871 30.0582 61.0692 29.5984C61.2729 29.1386 61.3747 28.6372 61.3747 28.0942C61.3747 27.5125 61.2729 26.9834 61.0692 26.5069C60.871 26.0305 60.5875 25.6205 60.2187 25.277C59.8444 24.939 59.393 24.6759 58.8645 24.4875C58.3361 24.2936 57.7443 24.1967 57.0892 24.1967H52.9771V36.2965H55.2974V31.8588ZM55.2974 29.964V26.0914H57.0892C57.4195 26.0914 57.7058 26.1441 57.948 26.2493C58.1902 26.3546 58.3939 26.4986 58.559 26.6815C58.7187 26.8643 58.837 27.0776 58.9141 27.3214C58.9967 27.5651 59.0379 27.8283 59.0379 28.1108C59.0379 28.3546 58.9967 28.5901 58.9141 28.8172C58.837 29.0388 58.7187 29.2355 58.559 29.4073C58.3939 29.579 58.1902 29.7147 57.948 29.8145C57.7058 29.9142 57.4195 29.964 57.0892 29.964H55.2974Z" fill="#505254"/>
<line y1="-0.26131" x2="14.2101" y2="-0.26131" transform="matrix(0.575836 -0.817565 0.814066 0.580772 13.1504 35.9999)" stroke="black" stroke-width="0.52262"/>
<path fill-rule="evenodd" clip-rule="evenodd" d="M45.8812 7.11077V12.1765H46.4038V7.11077L51.5799 7.11077V6.58815L46.4038 6.58815V1H45.8812V6.58815L40.1826 6.58815L40.1826 7.11077L45.8812 7.11077Z" fill="#505254"/>
<path d="M45.8812 12.1765H45.7505V12.3071H45.8812V12.1765ZM45.8812 7.11077H46.0118V6.98012H45.8812V7.11077ZM46.4038 12.1765V12.3071H46.5345V12.1765H46.4038ZM46.4038 7.11077V6.98012H46.2731V7.11077H46.4038ZM51.5799 7.11077V7.24143H51.7106V7.11077H51.5799ZM51.5799 6.58815H51.7106V6.4575H51.5799V6.58815ZM46.4038 6.58815H46.2731V6.71881H46.4038V6.58815ZM46.4038 1H46.5345V0.869345H46.4038V1ZM45.8812 1V0.869345H45.7505V1H45.8812ZM45.8812 6.58815V6.71881H46.0118V6.58815H45.8812ZM40.1826 6.58815L40.1826 6.4575H40.052V6.58815H40.1826ZM40.1826 7.11077H40.052V7.24143H40.1826L40.1826 7.11077ZM46.0118 12.1765V7.11077H45.7505V12.1765H46.0118ZM46.4038 12.0458H45.8812V12.3071H46.4038V12.0458ZM46.2731 7.11077V12.1765H46.5345V7.11077H46.2731ZM51.5799 6.98012L46.4038 6.98012V7.24143L51.5799 7.24143V6.98012ZM51.4492 6.58815V7.11077H51.7106V6.58815H51.4492ZM46.4038 6.71881L51.5799 6.71881V6.4575L46.4038 6.4575V6.71881ZM46.2731 1V6.58815H46.5345V1H46.2731ZM45.8812 1.13066H46.4038V0.869345H45.8812V1.13066ZM46.0118 6.58815V1H45.7505V6.58815H46.0118ZM40.1826 6.7188L45.8812 6.71881V6.4575L40.1826 6.4575L40.1826 6.7188ZM40.3133 7.11077L40.3133 6.58815H40.052L40.052 7.11077H40.3133ZM45.8812 6.98012L40.1826 6.98012L40.1826 7.24143L45.8812 7.24143V6.98012Z" fill="black"/>
</svg>
