<svg width="15" height="16" viewBox="0 0 15 16" fill="none" xmlns="http://www.w3.org/2000/svg">
<path d="M5.25 8L6.75 9.5L9.75 6.5M14.25 8C14.25 8.88642 14.0754 9.76417 13.7362 10.5831C13.397 11.4021 12.8998 12.1462 12.273 12.773C11.6462 13.3998 10.9021 13.897 10.0831 14.2362C9.26417 14.5754 8.38642 14.75 7.5 14.75C6.61358 14.75 5.73583 14.5754 4.91689 14.2362C4.09794 13.897 3.35382 13.3998 2.72703 12.773C2.10023 12.1462 1.60303 11.4021 1.26381 10.5831C0.924594 9.76417 0.75 8.88642 0.75 8C0.75 6.20979 1.46116 4.4929 2.72703 3.22703C3.9929 1.96116 5.70979 1.25 7.5 1.25C9.29021 1.25 11.0071 1.96116 12.273 3.22703C13.5388 4.4929 14.25 6.20979 14.25 8Z" stroke="#4B5563" stroke-linecap="round" stroke-linejoin="round"/>
</svg>
