<svg width="92" height="92" viewBox="0 0 92 92" fill="none" xmlns="http://www.w3.org/2000/svg">
<g clip-path="url(#clip0)">
<path d="M46 0C21.2203 0 1 20.4485 1 45.5C1 70.555 21.2238 91 46 91C70.7797 91 91 70.5515 91 45.5C91 20.445 70.7762 0 46 0ZM46 85.668C24.0946 85.668 6.27344 67.6488 6.27344 45.5C6.27344 23.3512 24.0946 5.33203 46 5.33203C67.9054 5.33203 85.7266 23.3512 85.7266 45.5C85.7266 67.6488 67.9054 85.668 46 85.668Z" fill="#505254"/>
<path d="M27.543 34.8359C27.543 39.246 31.0916 42.834 35.4531 42.834C39.8147 42.834 43.3633 39.246 43.3633 34.8359C43.3633 30.4259 39.8147 26.8379 35.4531 26.8379C31.0916 26.8379 27.543 30.4259 27.543 34.8359ZM35.4531 32.1699C36.9068 32.1699 38.0898 33.3662 38.0898 34.8359C38.0898 36.3057 36.9068 37.502 35.4531 37.502C33.9995 37.502 32.8164 36.3057 32.8164 34.8359C32.8164 33.3662 33.9995 32.1699 35.4531 32.1699Z" fill="#505254"/>
<path d="M56.5469 26.8379C52.1853 26.8379 48.6367 30.4259 48.6367 34.8359C48.6367 39.246 52.1853 42.834 56.5469 42.834C60.9084 42.834 64.457 39.246 64.457 34.8359C64.457 30.4259 60.9084 26.8379 56.5469 26.8379ZM56.5469 37.502C55.0932 37.502 53.9102 36.3057 53.9102 34.8359C53.9102 33.3662 55.0932 32.1699 56.5469 32.1699C58.0005 32.1699 59.1836 33.3662 59.1836 34.8359C59.1836 36.3057 58.0005 37.502 56.5469 37.502Z" fill="#505254"/>
<path d="M32.0439 16.9549C31.0146 15.9135 29.3447 15.9135 28.3154 16.9549L23.042 22.2869C22.012 23.3283 22.012 25.0161 23.042 26.0568C24.0713 27.0982 25.7412 27.0982 26.7705 26.0568L32.0439 20.7248C33.0739 19.6841 33.0739 17.9956 32.0439 16.9549Z" fill="#505254"/>
<path d="M63.6846 16.9549C62.6553 15.9135 60.9854 15.9135 59.9561 16.9549C58.9261 17.9963 58.9261 19.6841 59.9561 20.7248L65.2295 26.0568C66.2588 27.0982 67.9287 27.0982 68.958 26.0568C69.988 25.0161 69.988 23.3283 68.958 22.2869L63.6846 16.9549Z" fill="#505254"/>
<path d="M30.1797 48.166C28.7233 48.166 27.543 49.3595 27.543 50.832C27.543 52.3046 28.7233 53.498 30.1797 53.498C40.3571 53.498 48.6367 61.8696 48.6367 72.1602C48.6367 73.6327 49.8171 74.8262 51.2734 74.8262C52.7298 74.8262 53.9102 73.6327 53.9102 72.1602C53.9102 58.9301 43.2644 48.166 30.1797 48.166Z" fill="#505254"/>
</g>
<defs>
<clipPath id="clip0">
<rect width="91.3313" height="91.3313" fill="white" transform="translate(0.37793)"/>
</clipPath>
</defs>
</svg>
