<?xml version="1.0" encoding="utf-8"?>
<!-- Generator: Adobe Illustrator 23.0.0, SVG Export Plug-In . SVG Version: 6.00 Build 0)  -->
<svg version="1.1" id="圖層_1" xmlns="http://www.w3.org/2000/svg" xmlns:xlink="http://www.w3.org/1999/xlink" x="0px" y="0px"
	 viewBox="0 0 200 200" style="enable-background:new 0 0 200 200;" xml:space="preserve">
<style type="text/css">
	.st0{fill:#FFFFFF;stroke:#000000;stroke-width:8;stroke-miterlimit:10;}
</style>
<g>
	<g>
		<g>
			<circle class="st0" cx="100" cy="100" r="80"/>
		</g>
		<g>
			<path d="M146.6,67c-4.6-4.6-12.2-4.6-16.8,0L89,107.8L70.2,89c-4.6-4.6-12.2-4.6-16.8,0c-2.2,2.2-3.4,5.2-3.4,8.4
				c0,3.2,1.2,6.2,3.4,8.4L80.6,133c2.2,2.2,5.2,3.4,8.4,3.4c3.2,0,6.2-1.2,8.4-3.4l49-49c2.2-2.2,3.4-5.2,3.4-8.4
				S148.8,69.4,146.6,67z"/>
		</g>
	</g>
</g>
</svg>
