<svg width="252" height="252" viewBox="0 0 252 252" fill="none" xmlns="http://www.w3.org/2000/svg">
<path d="M126 0C56.412 0 0 56.412 0 126C0 195.587 56.412 251.999 126 251.999C195.587 251.999 251.999 195.587 251.999 126C251.926 56.4431 195.557 0.0743554 126 0ZM126 234C66.353 234 17.9998 185.646 17.9998 126C17.9998 66.353 66.353 17.9998 126 17.9998C185.646 17.9998 234 66.353 234 126C233.935 185.62 185.62 233.935 126 234Z" fill="#253245"/>
<path d="M195.142 74.6369C191.654 71.2682 186.124 71.2682 182.637 74.6369L99 158.274L69.3628 128.636C65.9097 125.061 60.2118 124.962 56.6369 128.415C53.0615 131.868 52.9629 137.566 56.416 141.141C56.4882 141.216 56.562 141.29 56.6369 141.362L92.6371 177.362C96.1513 180.876 101.849 180.876 105.363 177.362L195.363 87.3622C198.816 83.7873 198.717 78.0899 195.142 74.6369Z" fill="#253245"/>
</svg>
