<svg width="438" height="241" viewBox="0 0 438 241" fill="none" xmlns="http://www.w3.org/2000/svg">
<path d="M44.841 135.172V65.7209H28.9051V148H83.381V135.172H44.841ZM150.124 112.907V100.927C150.124 97.1972 149.766 93.6747 149.051 90.3594C148.372 87.0442 147.374 83.9926 146.056 81.2048C144.85 78.756 143.4 76.5144 141.704 74.48C140.047 72.4457 138.106 70.7127 135.884 69.2811C133.661 67.7741 131.156 66.6251 128.368 65.8339C125.618 65.0051 122.66 64.5907 119.496 64.5907C116.369 64.5907 113.468 64.9863 110.793 65.7774C108.118 66.5686 105.707 67.6988 103.56 69.1681C101.375 70.675 99.4345 72.4833 97.7392 74.593C96.0816 76.7028 94.6688 79.0574 93.5009 81.6568C92.2954 84.407 91.3724 87.4021 90.7319 90.642C90.1291 93.8819 89.8278 97.3102 89.8278 100.927V112.907C89.8278 116.298 90.0915 119.519 90.6189 122.57C91.184 125.622 91.994 128.447 93.0488 131.047C94.2167 133.872 95.6672 136.415 97.4001 138.676C99.1331 140.899 101.092 142.801 103.277 144.383C105.5 145.89 107.968 147.058 110.68 147.887C113.393 148.716 116.35 149.13 119.552 149.13C122.566 149.13 125.373 148.753 127.972 148C130.609 147.284 133.02 146.267 135.206 144.948C137.617 143.441 139.764 141.558 141.648 139.297C143.531 137.037 145.114 134.551 146.395 131.838C147.6 129.126 148.523 126.187 149.164 123.022C149.804 119.82 150.124 116.448 150.124 112.907ZM134.019 100.814V112.907C134.019 114.941 133.906 116.9 133.68 118.784C133.491 120.668 133.19 122.401 132.776 123.983C132.248 126.017 131.532 127.845 130.628 129.465C129.762 131.047 128.688 132.365 127.407 133.42C126.39 134.287 125.222 134.946 123.903 135.398C122.585 135.85 121.134 136.076 119.552 136.076C117.895 136.076 116.406 135.831 115.088 135.342C113.807 134.852 112.658 134.155 111.641 133.251C110.548 132.234 109.588 130.915 108.759 129.295C107.968 127.637 107.365 125.81 106.95 123.814C106.574 122.231 106.31 120.517 106.159 118.671C106.009 116.825 105.933 114.904 105.933 112.907V100.814C105.933 98.7041 106.009 96.6886 106.159 94.7672C106.348 92.8459 106.63 91.0752 107.007 89.4553C107.497 87.3456 108.175 85.4995 109.041 83.9173C109.945 82.335 111.038 81.0164 112.319 79.9615C113.261 79.2457 114.316 78.6995 115.483 78.3227C116.689 77.946 118.026 77.7576 119.496 77.7576C121.04 77.7576 122.434 77.9648 123.677 78.3792C124.958 78.7937 126.107 79.3776 127.125 80.1311C128.405 81.1482 129.517 82.4668 130.459 84.0868C131.401 85.6691 132.154 87.4774 132.719 89.5118C133.171 91.1317 133.491 92.9024 133.68 94.8238C133.906 96.7074 134.019 98.7041 134.019 100.814ZM176.802 148H192.964L217.885 65.7209H200.367L186.352 119.406L184.826 125L183.413 119.462L169.455 65.7209H151.937L176.802 148ZM273.1 111.946V99.4011H239.307V78.6618H278.638V65.7209H223.371V148H278.807V135.172H239.307V111.946H273.1Z" fill="#505254"/>
<path d="M209.062 241V158.721H193.352V192.458H170.07V158.721H154.303V241H170.07V205.342H193.352V241H209.062ZM274.318 204.946V192.401H240.525V171.662H279.856V158.721H224.589V241H280.025V228.172H240.525V204.946H274.318ZM312.11 158.721H292.387V241H306.967V216.644L306.289 179.686L315.952 213.875H323.807L334.601 178.16L333.923 216.644V241H348.502V158.721H328.78L319.908 189.632L312.11 158.721ZM378.439 210.823H390.702C395.185 210.823 399.235 210.183 402.852 208.902C406.468 207.621 409.558 205.832 412.119 203.534C414.643 201.273 416.584 198.58 417.94 195.453C419.334 192.326 420.031 188.916 420.031 185.224C420.031 181.269 419.334 177.671 417.94 174.431C416.584 171.191 414.643 168.403 412.119 166.067C409.558 163.769 406.468 161.98 402.852 160.699C399.235 159.38 395.185 158.721 390.702 158.721H362.56V241H378.439V210.823ZM378.439 197.939V171.605H390.702C392.962 171.605 394.921 171.963 396.579 172.679C398.237 173.395 399.631 174.374 400.761 175.618C401.853 176.861 402.663 178.311 403.191 179.969C403.756 181.626 404.038 183.416 404.038 185.337C404.038 186.995 403.756 188.596 403.191 190.141C402.663 191.648 401.853 192.985 400.761 194.153C399.631 195.321 398.237 196.244 396.579 196.922C394.921 197.6 392.962 197.939 390.702 197.939H378.439Z" fill="#505254"/>
<line x1="89.1842" y1="238.422" x2="145.184" y2="159.422" stroke="black" stroke-width="2"/>
<path fill-rule="evenodd" clip-rule="evenodd" d="M314 41V77H316V41L353 41V39L316 39V1H314V39L275 39V41L314 41Z" fill="#505254"/>
<path d="M314 77H313.5V77.5H314V77ZM314 41H314.5V40.5H314V41ZM316 77V77.5H316.5V77H316ZM316 41V40.5H315.5V41H316ZM353 41V41.5H353.5V41H353ZM353 39H353.5V38.5H353V39ZM316 39H315.5V39.5H316V39ZM316 1H316.5V0.5H316V1ZM314 1V0.5H313.5V1H314ZM314 39V39.5H314.5V39H314ZM275 39L275 38.5H274.5V39H275ZM275 41H274.5V41.5H275L275 41ZM314.5 77V41H313.5V77H314.5ZM316 76.5H314V77.5H316V76.5ZM315.5 41V77H316.5V41H315.5ZM353 40.5L316 40.5V41.5L353 41.5V40.5ZM352.5 39V41H353.5V39H352.5ZM316 39.5L353 39.5V38.5L316 38.5V39.5ZM315.5 1V39H316.5V1H315.5ZM314 1.5H316V0.5H314V1.5ZM314.5 39V1H313.5V39H314.5ZM275 39.5L314 39.5V38.5L275 38.5L275 39.5ZM275.5 41V39H274.5V41H275.5ZM314 40.5L275 40.5L275 41.5L314 41.5V40.5Z" fill="black"/>
</svg>
