<svg width="31" height="31" viewBox="0 0 31 31" fill="none" xmlns="http://www.w3.org/2000/svg">
<circle cx="15.1315" cy="15.7971" r="14.9265" fill="#191D27"/>
<g clip-path="url(#clip0)">
<path d="M20.7445 10.4568C20.1697 10.1473 19.5286 10.7442 19.1528 11.0979C18.2907 11.9379 17.5612 12.9106 16.7432 13.7949C15.8369 14.7676 14.9968 15.7402 14.0683 16.6909C13.5378 17.2214 12.963 17.7962 12.6093 18.4594C11.8135 17.6856 11.1282 16.8456 10.2439 16.1603C9.60282 15.674 8.54171 15.3203 8.56382 16.4919C8.60803 18.0173 9.95653 19.6532 10.9513 20.6921C11.3713 21.1343 11.924 21.5985 12.5651 21.6206C13.3388 21.6648 14.1347 20.7363 14.5989 20.2279C15.4169 19.3436 16.0801 18.3488 16.8316 17.4425C17.8043 16.2487 18.7991 15.077 19.7497 13.8612C20.3466 13.1096 22.2256 11.2526 20.7445 10.4568ZM9.53647 16.4035C9.51436 16.4035 9.49225 16.4035 9.44804 16.4255C9.35961 16.4035 9.29329 16.3813 9.20487 16.3371C9.27119 16.2929 9.38172 16.315 9.53647 16.4035Z" fill="#ECF0F0"/>
</g>
<defs>
<clipPath id="clip0">
<rect width="12.7372" height="12.7372" fill="white" transform="translate(8.56348 9.62744)"/>
</clipPath>
</defs>
</svg>
