<?xml version="1.0" encoding="utf-8"?>
<!-- Generator: Adobe Illustrator 24.3.0, SVG Export Plug-In . SVG Version: 6.00 Build 0)  -->
<svg version="1.1" id="Layer_1" xmlns="http://www.w3.org/2000/svg" xmlns:xlink="http://www.w3.org/1999/xlink" x="0px" y="0px"
	 viewBox="0 0 512 512" style="enable-background:new 0 0 512 512;" xml:space="preserve">
<style type="text/css">
	.st0{fill:#FF1375;}
</style>
<g>
	<g>
		<g>
			<g>
				<path class="st0" d="M256,0C114.4,0,0,114.3,0,256s114.3,256,256,256s256-114.3,256-256S397.6,0,256,0z M256,477.8
					c-122.9,0-221.8-98.9-221.8-221.8S133.1,34.2,256,34.2S477.8,133.1,477.8,256S378.9,477.8,256,477.8z"/>
			</g>
		</g>
		<g>
			<g>
				<path class="st0" d="M378.9,180.9c-6.8-6.8-17-6.8-23.9,0L223.6,312.2l-66.5-66.5c-6.8-6.8-17-6.8-23.9,0
					c-6.8,6.8-6.8,17,0,23.9l78.5,78.5c3.4,3.4,6.8,5.1,12,5.1c5.1,0,8.6-1.7,12-5.1l143.3-143.3
					C385.6,198.1,385.6,187.8,378.9,180.9z"/>
			</g>
		</g>
	</g>
</g>
</svg>
