<?xml version="1.0" encoding="utf-8"?>
<!-- Generator: Adobe Illustrator 23.0.0, SVG Export Plug-In . SVG Version: 6.00 Build 0)  -->
<svg version="1.1" id="Layer_1" xmlns="http://www.w3.org/2000/svg" xmlns:xlink="http://www.w3.org/1999/xlink" x="0px" y="0px"
	 viewBox="0 0 512 512" style="enable-background:new 0 0 512 512;" xml:space="preserve">
<style type="text/css">
	.st0{fill:#ff1375;}
</style>
<circle class="st0" cx="306.5" cy="253.7" r="201.6"/>
<g>
	<g>
		<path d="M81.5,457.1H23.7c-8.9,0-16.1-7.2-16.1-16.1v-57.8c0-4.3,1.6-8.3,4.6-11.3L145.1,237c-4.8-8.6-11.3-22.4-13.8-38.4
			c-3.9-25,3.5-46.8,21.4-63c38-34.5,55.8-49.2,58.6-51.5c4.1-4.1,32.1-29.6,69.3-11c33,16.5,88.3,44.1,118.3,122.7l0.1,0.3
			c0.5,1.6,13,39-15.2,60.7L328,313.6c-2.5,2.7-21.1,21.8-50.8,21.8c-4.4,0-9-0.4-13.9-1.4c-1.6-0.3-3.1-0.9-4.6-1.6l-38.8-21
			c-5.3-2.9-7.3-9.6-4.4-14.9c2.9-5.3,9.6-7.3,14.9-4.4l38,20.6c26.5,4.8,43.2-13.6,43.4-13.8l0.4-0.4l56.2-57.3
			c0.5-0.6,1.1-1.1,1.8-1.6c15.4-11.6,8.8-33.8,8-36.1c-27-70.4-75.4-94.6-107.5-110.6c-24.2-12.1-42.1,5-44.1,7
			c-0.4,0.4-0.8,0.8-1.3,1.2c-1.9,1.5-19.1,15.7-58,51c-29.2,26.5-8.4,66.1-1.3,77.6c3.9,6.3,3,14.4-2.2,19.7L29.6,385.7v49.5h46
			v-27.7c0-4.7,2-9.1,5.6-12.2s8.2-4.4,12.8-3.8l26.1,3.8l-1.6-33.2c-0.2-4.8,1.6-9.3,5.1-12.6s8.2-4.8,12.9-4.2l45.5,5.6
			c6,0.7,10.3,6.2,9.6,12.3s-6.2,10.3-12.3,9.6l-38.5-4.7l1.6,33.3c0.2,4.8-1.7,9.4-5.3,12.7s-8.4,4.7-13.1,4l-26.4-3.8V441
			C97.6,449.9,90.4,457.1,81.5,457.1z M211.1,84.3L211.1,84.3L211.1,84.3z"/>
	</g>
	<circle cx="293.2" cy="167.9" r="24.1"/>
</g>
</svg>
