<?xml version="1.0" encoding="utf-8"?>
<!-- Generator: Adobe Illustrator 23.0.0, SVG Export Plug-In . SVG Version: 6.00 Build 0)  -->
<svg version="1.1" id="Layer_1" xmlns="http://www.w3.org/2000/svg" xmlns:xlink="http://www.w3.org/1999/xlink" x="0px" y="0px"
	 viewBox="0 0 512 512" style="enable-background:new 0 0 512 512;" xml:space="preserve">
<style type="text/css">
	.st0{fill:#E2E2E2;}
</style>
<g>
	<circle class="st0" cx="306.49" cy="253.74" r="201.62"/>
	<g>
		<g>
			<path d="M81.53,457.11h-57.8c-8.87,0-16.09-7.22-16.09-16.09v-57.79c0-4.25,1.64-8.26,4.63-11.29l132.83-134.9
				c-4.84-8.58-11.34-22.45-13.82-38.44c-3.87-24.98,3.54-46.76,21.41-62.98c37.98-34.48,55.78-49.19,58.64-51.54
				c4.1-4.06,32.11-29.63,69.35-11.01c33.01,16.5,88.25,44.13,118.29,122.68l0.13,0.34c0.55,1.59,13.04,39.01-15.18,60.67
				l-55.76,56.84c-2.46,2.67-21.14,21.76-50.79,21.76c-4.41,0-9.05-0.42-13.93-1.38c-1.59-0.31-3.13-0.87-4.57-1.65l-38.79-21.01
				c-5.34-2.89-7.33-9.57-4.43-14.91c2.89-5.34,9.57-7.33,14.91-4.43l37.99,20.58c26.55,4.76,43.21-13.63,43.38-13.82l0.38-0.41
				l56.22-57.31c0.54-0.55,1.13-1.07,1.77-1.55c15.38-11.58,8.75-33.85,8.03-36.1c-27-70.38-75.43-94.59-107.49-110.62
				c-24.17-12.09-42.12,5.03-44.08,7.02c-0.41,0.42-0.83,0.8-1.28,1.17c-1.85,1.5-19.11,15.67-58,50.97
				c-29.21,26.52-8.36,66.12-1.27,77.62c3.89,6.31,2.96,14.42-2.24,19.71L29.63,385.66v49.45h45.98v-27.74
				c0-4.67,2.03-9.11,5.56-12.17s8.22-4.42,12.84-3.75l26.09,3.79l-1.59-33.17c-0.23-4.75,1.64-9.33,5.12-12.56
				c3.48-3.23,8.18-4.76,12.9-4.18l45.5,5.57c6.03,0.74,10.32,6.23,9.58,12.26c-0.74,6.03-6.23,10.32-12.26,9.58l-38.54-4.72
				l1.6,33.33c0.23,4.82-1.68,9.44-5.25,12.68c-3.57,3.24-8.36,4.7-13.13,4.01l-26.43-3.84v26.81
				C97.61,449.89,90.4,457.11,81.53,457.11z M211.1,84.31c0,0-0.01,0.01-0.01,0.01C211.09,84.32,211.1,84.31,211.1,84.31z"/>
		</g>
		<circle cx="293.18" cy="167.94" r="24.06"/>
	</g>
</g>
</svg>
