<?xml version="1.0" encoding="utf-8"?>
<!-- Generator: Adobe Illustrator 24.3.0, SVG Export Plug-In . SVG Version: 6.00 Build 0)  -->
<svg version="1.1" id="Capa_1" xmlns="http://www.w3.org/2000/svg" xmlns:xlink="http://www.w3.org/1999/xlink" x="0px" y="0px"
	 viewBox="0 0 512 512" style="enable-background:new 0 0 512 512;" xml:space="preserve">
<style type="text/css">
	.st0{fill:#FF1375;}
</style>
<g>
	<g>
		<g>
			<g>
				<path class="st0" d="M420.3,77.1H16.8C7.5,77.1,0,84.6,0,93.9v251.5c0,9.3,7.5,16.8,16.8,16.8h403.6c9.3,0,16.8-7.5,16.8-16.8
					V93.9C437.1,84.6,429.6,77.1,420.3,77.1z M403.6,328.7h-370v-218h370V328.7z"/>
			</g>
		</g>
		<g>
			<g>
				<path class="st0" d="M218.6,139.2c-44.4,0-80.5,36.1-80.5,80.5s36.1,80.5,80.5,80.5S299,264,299,219.7S262.9,139.2,218.6,139.2z
					 M218.6,266.6c-25.9,0-47-21.1-47-47s21.1-47,47-47s47,21.1,47,47S244.4,266.6,218.6,266.6z"/>
			</g>
		</g>
		<g>
			<g>
				<path class="st0" d="M63.7,93.9c0,25.9-21.1,47-47,47v33.5c44.4,0,80.5-36.1,80.5-80.5C97.3,93.9,63.7,93.9,63.7,93.9z"/>
			</g>
		</g>
		<g>
			<g>
				<path class="st0" d="M373.4,93.9h-33.5c0,44.4,36.1,80.5,80.5,80.5v-33.5C394.4,140.9,373.4,119.8,373.4,93.9z"/>
			</g>
		</g>
		<g>
			<g>
				<path class="st0" d="M16.8,266.6v33.5c25.9,0,47,21.1,47,46.9h33.5C97.3,302.7,61.1,266.6,16.8,266.6z"/>
			</g>
		</g>
		<g>
			<g>
				<path class="st0" d="M339.8,347.1h33.5c0-25.9,21.1-47,47-46.9v-33.5C376,266.6,339.8,302.7,339.8,347.1z"/>
			</g>
		</g>
		<g>
			<g>
				<path class="st0" d="M495.2,149.8h-74.9v33.5h58.1v218h-370v-55.9H74.9v72.7c0,9.3,7.5,16.8,16.8,16.8h403.6
					c9.3,0,16.8-7.5,16.8-16.8V166.6C512,157.3,504.5,149.8,495.2,149.8z"/>
			</g>
		</g>
		<g>
			<g>
				<g>
					<path class="st0" d="M448.3,166.6h-33.5c0,44.4,36.1,80.5,80.5,80.5v-33.5C469.3,213.5,448.3,192.5,448.3,166.6z"/>
					<polygon class="st0" points="495.2,247.1 495.2,247.1 495.2,247.1 					"/>
				</g>
			</g>
		</g>
		<g>
			<g>
				<path class="st0" d="M91.7,339.3v33.5c25.9,0,47,21.1,47,46.9h33.5C172.2,375.4,136,339.3,91.7,339.3z"/>
			</g>
		</g>
		<g>
			<g>
				<path class="st0" d="M414.7,419.8h33.5c0-25.9,21.1-47,47-47v-33.5C450.9,339.3,414.7,375.4,414.7,419.8z"/>
			</g>
		</g>
	</g>
</g>
</svg>
