<?xml version="1.0" encoding="utf-8"?>
<!-- Generator: Adobe Illustrator 23.0.0, SVG Export Plug-In . SVG Version: 6.00 Build 0)  -->
<svg version="1.1" id="Layer_1" xmlns="http://www.w3.org/2000/svg" xmlns:xlink="http://www.w3.org/1999/xlink" x="0px" y="0px"
	 viewBox="0 0 512 512" style="enable-background:new 0 0 512 512;" xml:space="preserve">
<style type="text/css">
	.st0{fill:#E2E2E2;}
</style>
<circle class="st0" cx="278.9" cy="257.67" r="226.91"/>
<g>
	<g>
		<path d="M181.91,234.3c-52.7,0-95.58-42.88-95.58-95.58s42.88-95.58,95.58-95.58s95.58,42.88,95.58,95.58
			S234.61,234.3,181.91,234.3z M181.91,68.15c-38.92,0-70.58,31.66-70.58,70.58s31.66,70.58,70.58,70.58s70.58-31.66,70.58-70.58
			S220.83,68.15,181.91,68.15z"/>
	</g>
	<g>
		<path d="M348.97,455.36H5.08v-12.5c0-90.09,77.13-163.39,171.94-163.39s171.94,73.3,171.94,163.39V455.36z M30.68,430.36h292.7
			c-6.73-70.48-69.8-125.89-146.35-125.89S37.41,359.88,30.68,430.36z"/>
	</g>
</g>
</svg>
