<?xml version="1.0" encoding="utf-8"?>
<!-- Generator: Adobe Illustrator 23.0.0, SVG Export Plug-In . SVG Version: 6.00 Build 0)  -->
<svg version="1.1" id="Layer_1" xmlns="http://www.w3.org/2000/svg" xmlns:xlink="http://www.w3.org/1999/xlink" x="0px" y="0px"
	 viewBox="0 0 512 512" style="enable-background:new 0 0 512 512;" xml:space="preserve">
<style type="text/css">
	.st0{fill:#ff1375;}
</style>
<circle class="st0" cx="278.9" cy="257.7" r="226.9"/>
<g>
	<g>
		<path d="M181.9,234.3c-52.7,0-95.6-42.9-95.6-95.6s42.9-95.6,95.6-95.6s95.6,42.9,95.6,95.6S234.6,234.3,181.9,234.3z M181.9,68.2
			c-38.9,0-70.6,31.7-70.6,70.6s31.7,70.6,70.6,70.6s70.6-31.7,70.6-70.6S220.8,68.2,181.9,68.2z"/>
	</g>
	<g>
		<path d="M349,455.4H5.1v-12.5c0-90.1,77.1-163.4,171.9-163.4s172,73.3,172,163.4V455.4L349,455.4z M30.7,430.4h292.7
			c-6.7-70.5-69.8-125.9-146.4-125.9S37.4,359.9,30.7,430.4z"/>
	</g>
</g>
</svg>
